<svg xmlns="http://www.w3.org/2000/svg" xmlns:xlink="http://www.w3.org/1999/xlink" width="400" zoomAndPan="magnify" viewBox="0 0 300 299.999988" height="400" preserveAspectRatio="xMidYMid meet" version="1.0"><path fill="#492515" d="M 149.996094 299.996094 C 232.839844 299.996094 299.996094 232.839844 299.996094 149.996094 C 299.996094 67.15625 232.839844 0 149.996094 0 C 67.15625 0 0 67.15625 0 149.996094 C 0 232.839844 67.15625 299.996094 149.996094 299.996094 " fill-opacity="1" fill-rule="nonzero"/><path fill="#bf874d" d="M 245.191406 149.996094 C 245.191406 97.421875 202.570312 54.800781 149.996094 54.800781 C 97.421875 54.800781 54.800781 97.421875 54.800781 149.996094 C 54.800781 202.570312 97.421875 245.191406 149.996094 245.191406 C 202.570312 245.191406 245.191406 202.570312 245.191406 149.996094 " fill-opacity="1" fill-rule="nonzero"/><path fill="#ffffff" d="M 56.359375 149.996094 C 56.359375 98.367188 98.367188 56.359375 149.996094 56.359375 C 201.628906 56.359375 243.636719 98.367188 243.636719 149.996094 C 243.636719 201.628906 201.628906 243.636719 149.996094 243.636719 C 98.367188 243.636719 56.359375 201.628906 56.359375 149.996094 Z M 246.746094 149.996094 C 246.746094 96.648438 203.34375 53.246094 149.996094 53.246094 C 96.648438 53.246094 53.246094 96.648438 53.246094 149.996094 C 53.246094 203.34375 96.648438 246.746094 149.996094 246.746094 C 203.34375 246.746094 246.746094 203.34375 246.746094 149.996094 " fill-opacity="1" fill-rule="nonzero"/><path fill="#ffffff" d="M 126.695312 24.367188 C 127.003906 23.660156 127.394531 23.019531 127.867188 22.441406 C 128.339844 21.867188 128.902344 21.386719 129.554688 21 C 130.207031 20.609375 130.953125 20.34375 131.789062 20.207031 C 132.570312 20.082031 133.308594 20.085938 134.007812 20.21875 C 134.707031 20.355469 135.351562 20.597656 135.9375 20.945312 C 136.53125 21.292969 137.058594 21.742188 137.535156 22.289062 C 138.007812 22.835938 138.414062 23.457031 138.757812 24.152344 L 141.421875 22.46875 C 140.816406 21.425781 140.078125 20.546875 139.210938 19.839844 C 138.347656 19.128906 137.402344 18.582031 136.375 18.1875 C 135.347656 17.792969 134.269531 17.550781 133.136719 17.457031 C 132.003906 17.367188 130.867188 17.410156 129.730469 17.597656 C 128.546875 17.789062 127.4375 18.121094 126.398438 18.589844 C 125.355469 19.0625 124.414062 19.644531 123.5625 20.335938 C 122.714844 21.03125 121.972656 21.824219 121.332031 22.710938 C 120.691406 23.601562 120.179688 24.5625 119.789062 25.59375 C 119.402344 26.621094 119.148438 27.707031 119.035156 28.851562 C 118.917969 30 118.957031 31.167969 119.148438 32.363281 C 119.34375 33.554688 119.679688 34.675781 120.152344 35.726562 C 120.628906 36.777344 121.214844 37.722656 121.90625 38.570312 C 122.601562 39.417969 123.390625 40.160156 124.28125 40.800781 C 125.171875 41.441406 126.125 41.957031 127.152344 42.34375 C 128.179688 42.730469 129.257812 42.984375 130.394531 43.097656 C 131.53125 43.210938 132.691406 43.175781 133.871094 42.980469 C 134.964844 42.804688 136.027344 42.496094 137.0625 42.054688 C 138.097656 41.613281 139.042969 41.054688 139.898438 40.371094 C 140.753906 39.6875 141.484375 38.882812 142.089844 37.957031 C 142.695312 37.03125 143.121094 36 143.371094 34.859375 L 140.285156 34.167969 C 140.160156 34.871094 139.949219 35.539062 139.652344 36.175781 C 139.355469 36.816406 138.984375 37.386719 138.53125 37.894531 C 138.082031 38.402344 137.558594 38.828125 136.960938 39.175781 C 136.367188 39.519531 135.710938 39.753906 134.996094 39.867188 C 133.644531 40.089844 132.449219 39.984375 131.410156 39.558594 C 130.363281 39.132812 129.46875 38.503906 128.71875 37.667969 C 127.96875 36.828125 127.363281 35.847656 126.898438 34.722656 C 126.433594 33.59375 126.105469 32.441406 125.914062 31.261719 C 125.792969 30.515625 125.734375 29.746094 125.738281 28.945312 C 125.746094 28.148438 125.832031 27.363281 125.992188 26.589844 C 126.152344 25.816406 126.386719 25.078125 126.695312 24.367188 " fill-opacity="1" fill-rule="nonzero"/><path fill="#ffffff" d="M 153.5 28.792969 C 153.566406 28.03125 153.664062 27.257812 153.796875 26.476562 C 153.933594 25.6875 154.117188 24.9375 154.351562 24.21875 C 154.589844 23.5 154.886719 22.828125 155.242188 22.207031 C 155.601562 21.585938 156.042969 21.054688 156.566406 20.617188 C 157.09375 20.179688 157.710938 19.851562 158.421875 19.628906 C 159.128906 19.410156 159.949219 19.335938 160.871094 19.414062 C 161.785156 19.492188 162.570312 19.699219 163.226562 20.03125 C 163.886719 20.367188 164.4375 20.796875 164.882812 21.320312 C 165.328125 21.84375 165.675781 22.441406 165.929688 23.117188 C 166.183594 23.792969 166.375 24.503906 166.492188 25.257812 C 166.609375 26.011719 166.671875 26.785156 166.675781 27.578125 C 166.675781 28.367188 166.644531 29.136719 166.582031 29.886719 C 166.519531 30.613281 166.417969 31.363281 166.277344 32.128906 C 166.132812 32.894531 165.9375 33.636719 165.6875 34.355469 C 165.445312 35.070312 165.132812 35.746094 164.753906 36.371094 C 164.382812 36.996094 163.929688 37.539062 163.402344 37.992188 C 162.878906 38.445312 162.269531 38.792969 161.582031 39.023438 C 160.890625 39.257812 160.105469 39.339844 159.210938 39.261719 C 158.300781 39.1875 157.515625 38.980469 156.855469 38.636719 C 156.199219 38.296875 155.648438 37.867188 155.203125 37.34375 C 154.761719 36.816406 154.410156 36.21875 154.152344 35.546875 C 153.898438 34.871094 153.710938 34.160156 153.59375 33.414062 C 153.472656 32.664062 153.414062 31.894531 153.410156 31.105469 C 153.410156 30.316406 153.441406 29.542969 153.5 28.792969 Z M 153.738281 40.816406 C 155.324219 41.542969 157.070312 41.988281 158.972656 42.148438 C 160.875 42.304688 162.667969 42.15625 164.351562 41.703125 C 166.035156 41.25 167.519531 40.519531 168.804688 39.515625 C 170.09375 38.515625 171.140625 37.246094 171.949219 35.71875 C 172.757812 34.1875 173.242188 32.433594 173.410156 30.457031 C 173.578125 28.445312 173.394531 26.617188 172.851562 24.976562 C 172.320312 23.332031 171.5 21.914062 170.40625 20.71875 C 169.308594 19.523438 167.964844 18.5625 166.382812 17.839844 C 164.796875 17.117188 163.042969 16.675781 161.113281 16.515625 C 159.1875 16.355469 157.382812 16.5 155.703125 16.945312 C 154.015625 17.398438 152.535156 18.121094 151.257812 19.117188 C 149.976562 20.117188 148.933594 21.378906 148.132812 22.910156 C 147.328125 24.4375 146.84375 26.210938 146.675781 28.222656 C 146.511719 30.199219 146.695312 32.011719 147.242188 33.652344 C 147.785156 35.292969 148.609375 36.71875 149.710938 37.921875 C 150.8125 39.121094 152.152344 40.089844 153.738281 40.816406 " fill-opacity="1" fill-rule="nonzero"/><path fill="#ffffff" d="M 198.378906 28.820312 L 199.335938 25.816406 L 182.632812 20.484375 L 175.136719 43.960938 L 181.550781 46.007812 L 184.820312 35.773438 L 192.765625 38.308594 L 193.71875 35.324219 L 185.769531 32.789062 L 188.089844 25.535156 L 198.378906 28.820312 " fill-opacity="1" fill-rule="nonzero"/><path fill="#ffffff" d="M 219.660156 39.863281 L 221.160156 37.09375 L 205.734375 28.75 L 194.011719 50.421875 L 199.929688 53.628906 L 205.042969 44.175781 L 212.382812 48.148438 L 213.871094 45.390625 L 206.535156 41.421875 L 210.15625 34.722656 L 219.660156 39.863281 " fill-opacity="1" fill-rule="nonzero"/><path fill="#ffffff" d="M 238.539062 54.671875 L 240.523438 52.230469 L 226.929688 41.15625 L 211.367188 60.257812 L 224.960938 71.335938 L 226.949219 68.894531 L 218.574219 62.070312 L 223.375 56.179688 L 229.84375 61.449219 L 231.820312 59.023438 L 225.351562 53.753906 L 230.164062 47.847656 L 238.539062 54.671875 " fill-opacity="1" fill-rule="nonzero"/><path fill="#ffffff" d="M 254.804688 73.214844 L 257.214844 71.191406 L 245.945312 57.757812 L 227.066406 73.59375 L 238.335938 87.03125 L 240.75 85.003906 L 233.804688 76.730469 L 239.628906 71.847656 L 244.988281 78.238281 L 247.390625 76.226562 L 242.027344 69.832031 L 247.863281 64.941406 L 254.804688 73.214844 " fill-opacity="1" fill-rule="nonzero"/><path fill="#ffffff" d="M 278.226562 137.375 C 277.871094 137.957031 277.414062 138.484375 276.859375 138.945312 C 276.304688 139.410156 275.679688 139.808594 274.976562 140.144531 L 276.621094 142.832031 C 277.675781 142.242188 278.566406 141.515625 279.285156 140.660156 C 280.007812 139.808594 280.570312 138.871094 280.980469 137.847656 C 281.386719 136.828125 281.644531 135.753906 281.753906 134.625 C 281.867188 133.492188 281.835938 132.355469 281.664062 131.214844 C 281.492188 130.03125 281.175781 128.914062 280.71875 127.867188 C 280.265625 126.820312 279.695312 125.867188 279.019531 125.007812 C 278.335938 124.148438 277.554688 123.394531 276.671875 122.738281 C 275.792969 122.085938 274.84375 121.558594 273.820312 121.160156 C 272.792969 120.753906 271.710938 120.488281 270.566406 120.355469 C 269.425781 120.21875 268.253906 120.242188 267.058594 120.417969 C 265.863281 120.597656 264.734375 120.914062 263.679688 121.375 C 262.621094 121.832031 261.664062 122.402344 260.808594 123.085938 C 259.953125 123.765625 259.199219 124.546875 258.542969 125.425781 C 257.890625 126.308594 257.363281 127.253906 256.957031 128.277344 C 256.554688 129.296875 256.289062 130.371094 256.160156 131.503906 C 256.023438 132.640625 256.046875 133.800781 256.222656 134.984375 C 256.386719 136.078125 256.679688 137.148438 257.105469 138.1875 C 257.53125 139.230469 258.078125 140.183594 258.75 141.046875 C 259.417969 141.914062 260.210938 142.65625 261.128906 143.277344 C 262.042969 143.894531 263.070312 144.335938 264.207031 144.601562 L 264.941406 141.527344 C 264.242188 141.390625 263.574219 141.167969 262.941406 140.863281 C 262.308594 140.558594 261.742188 140.175781 261.242188 139.71875 C 260.742188 139.261719 260.320312 138.734375 259.984375 138.128906 C 259.644531 137.53125 259.425781 136.871094 259.320312 136.15625 C 259.121094 134.800781 259.238281 133.605469 259.679688 132.570312 C 260.121094 131.53125 260.765625 130.644531 261.613281 129.90625 C 262.460938 129.171875 263.453125 128.578125 264.585938 128.128906 C 265.71875 127.683594 266.875 127.371094 268.0625 127.195312 C 268.804688 127.085938 269.578125 127.042969 270.378906 127.058594 C 271.175781 127.078125 271.957031 127.171875 272.730469 127.34375 C 273.496094 127.519531 274.234375 127.761719 274.941406 128.078125 C 275.644531 128.398438 276.28125 128.800781 276.847656 129.28125 C 277.414062 129.761719 277.886719 130.332031 278.269531 130.992188 C 278.648438 131.648438 278.902344 132.398438 279.023438 133.234375 C 279.140625 134.019531 279.125 134.757812 278.980469 135.453125 C 278.835938 136.148438 278.585938 136.789062 278.226562 137.375 " fill-opacity="1" fill-rule="nonzero"/><path fill="#ffffff" d="M 259.65625 160.414062 C 259.742188 159.5 259.953125 158.714844 260.300781 158.0625 C 260.648438 157.40625 261.085938 156.859375 261.613281 156.417969 C 262.140625 155.980469 262.742188 155.632812 263.417969 155.386719 C 264.09375 155.132812 264.804688 154.953125 265.554688 154.839844 C 266.308594 154.730469 267.074219 154.671875 267.867188 154.679688 C 268.65625 154.683594 269.425781 154.71875 270.175781 154.789062 C 270.9375 154.859375 271.707031 154.964844 272.492188 155.105469 C 273.277344 155.246094 274.023438 155.4375 274.742188 155.675781 C 275.460938 155.921875 276.125 156.222656 276.746094 156.585938 C 277.367188 156.949219 277.890625 157.398438 278.324219 157.925781 C 278.757812 158.453125 279.082031 159.074219 279.292969 159.785156 C 279.511719 160.496094 279.578125 161.316406 279.488281 162.238281 C 279.40625 163.152344 279.195312 163.933594 278.851562 164.589844 C 278.511719 165.246094 278.078125 165.792969 277.550781 166.230469 C 277.019531 166.671875 276.421875 167.015625 275.746094 167.269531 C 275.070312 167.519531 274.351562 167.699219 273.597656 167.808594 C 272.84375 167.921875 272.070312 167.976562 271.28125 167.96875 C 270.488281 167.964844 269.722656 167.929688 268.972656 167.859375 C 268.246094 167.792969 267.5 167.6875 266.730469 167.53125 C 265.964844 167.382812 265.226562 167.183594 264.511719 166.929688 C 263.792969 166.675781 263.125 166.359375 262.5 165.976562 C 261.878906 165.597656 261.339844 165.140625 260.890625 164.613281 C 260.445312 164.082031 260.101562 163.472656 259.875 162.78125 C 259.644531 162.089844 259.574219 161.300781 259.65625 160.414062 Z M 263.09375 173.175781 C 264.617188 173.996094 266.363281 174.5 268.34375 174.683594 C 270.351562 174.867188 272.183594 174.695312 273.828125 174.175781 C 275.472656 173.652344 276.898438 172.847656 278.105469 171.757812 C 279.3125 170.671875 280.28125 169.339844 281.015625 167.761719 C 281.753906 166.183594 282.210938 164.433594 282.386719 162.503906 C 282.566406 160.582031 282.4375 158.777344 282 157.089844 C 281.566406 155.402344 280.855469 153.914062 279.867188 152.625 C 278.882812 151.335938 277.628906 150.285156 276.105469 149.46875 C 274.582031 148.652344 272.8125 148.152344 270.804688 147.964844 C 268.824219 147.785156 267.015625 147.960938 265.367188 148.488281 C 263.722656 149.015625 262.292969 149.828125 261.082031 150.921875 C 259.867188 152.011719 258.890625 153.34375 258.152344 154.925781 C 257.410156 156.503906 256.953125 158.242188 256.777344 160.144531 C 256.601562 162.050781 256.734375 163.84375 257.171875 165.527344 C 257.613281 167.214844 258.332031 168.707031 259.324219 170 C 260.3125 171.296875 261.570312 172.355469 263.09375 173.175781 " fill-opacity="1" fill-rule="nonzero"/><path fill="#ffffff" d="M 272.910156 200.574219 L 278.296875 183.886719 L 254.84375 176.316406 L 252.777344 182.722656 L 263.003906 186.023438 L 260.441406 193.964844 L 263.421875 194.925781 L 265.984375 186.988281 L 273.230469 189.324219 L 269.914062 199.605469 L 272.910156 200.574219 " fill-opacity="1" fill-rule="nonzero"/><path fill="#ffffff" d="M 261.65625 222.332031 L 269.996094 206.90625 L 248.324219 195.183594 L 245.117188 201.105469 L 254.570312 206.21875 L 250.601562 213.558594 L 253.359375 215.046875 L 257.324219 207.710938 L 264.027344 211.332031 L 258.886719 220.835938 L 261.65625 222.332031 " fill-opacity="1" fill-rule="nonzero"/><path fill="#ffffff" d="M 246.574219 241.699219 L 257.621094 228.085938 L 238.488281 212.558594 L 227.441406 226.171875 L 229.882812 228.15625 L 236.691406 219.765625 L 242.59375 224.554688 L 237.332031 231.035156 L 239.765625 233.007812 L 245.023438 226.53125 L 250.933594 231.328125 L 244.128906 239.714844 L 246.574219 241.699219 " fill-opacity="1" fill-rule="nonzero"/><path fill="#ffffff" d="M 227.644531 258.429688 L 241.058594 247.132812 L 225.183594 228.285156 L 211.773438 239.582031 L 213.800781 241.992188 L 222.0625 235.03125 L 226.957031 240.84375 L 220.578125 246.21875 L 222.59375 248.617188 L 228.972656 243.238281 L 233.882812 249.0625 L 225.617188 256.023438 L 227.644531 258.429688 " fill-opacity="1" fill-rule="nonzero"/><path fill="#ffffff" d="M 160.652344 275.277344 C 160.410156 276.027344 160.097656 276.738281 159.714844 277.410156 C 159.332031 278.082031 158.875 278.675781 158.339844 279.199219 C 157.804688 279.714844 157.195312 280.132812 156.503906 280.449219 C 155.8125 280.769531 155.046875 280.949219 154.199219 280.992188 C 153.410156 281.035156 152.671875 280.949219 151.992188 280.742188 C 151.316406 280.53125 150.703125 280.222656 150.152344 279.8125 C 149.605469 279.402344 149.125 278.898438 148.714844 278.300781 C 148.304688 277.710938 147.964844 277.046875 147.703125 276.316406 L 144.871094 277.703125 C 145.359375 278.808594 145.996094 279.757812 146.78125 280.558594 C 147.5625 281.355469 148.441406 282.003906 149.421875 282.507812 C 150.402344 283.007812 151.445312 283.367188 152.5625 283.582031 C 153.675781 283.796875 154.808594 283.875 155.960938 283.8125 C 157.160156 283.75 158.300781 283.539062 159.382812 283.1875 C 160.46875 282.832031 161.472656 282.355469 162.390625 281.757812 C 163.308594 281.160156 164.136719 280.453125 164.867188 279.636719 C 165.597656 278.824219 166.214844 277.921875 166.710938 276.941406 C 167.210938 275.964844 167.578125 274.910156 167.816406 273.78125 C 168.058594 272.65625 168.144531 271.488281 168.078125 270.28125 C 168.015625 269.074219 167.804688 267.921875 167.449219 266.828125 C 167.089844 265.734375 166.609375 264.726562 166.011719 263.8125 C 165.414062 262.894531 164.710938 262.070312 163.894531 261.335938 C 163.078125 260.601562 162.183594 259.988281 161.207031 259.492188 C 160.230469 258.996094 159.183594 258.628906 158.066406 258.390625 C 156.949219 258.152344 155.792969 258.066406 154.59375 258.128906 C 153.488281 258.1875 152.398438 258.382812 151.324219 258.703125 C 150.246094 259.03125 149.25 259.484375 148.324219 260.074219 C 147.398438 260.660156 146.582031 261.378906 145.882812 262.234375 C 145.179688 263.085938 144.640625 264.066406 144.269531 265.171875 L 147.265625 266.199219 C 147.464844 265.511719 147.746094 264.867188 148.113281 264.265625 C 148.476562 263.664062 148.910156 263.136719 149.414062 262.679688 C 149.914062 262.226562 150.480469 261.859375 151.109375 261.578125 C 151.742188 261.300781 152.417969 261.140625 153.140625 261.101562 C 154.507812 261.03125 155.683594 261.261719 156.675781 261.796875 C 157.667969 262.332031 158.488281 263.058594 159.144531 263.96875 C 159.796875 264.882812 160.296875 265.925781 160.632812 267.097656 C 160.972656 268.265625 161.175781 269.449219 161.238281 270.644531 C 161.28125 271.394531 161.253906 272.167969 161.160156 272.960938 C 161.0625 273.753906 160.894531 274.527344 160.652344 275.277344 " fill-opacity="1" fill-rule="nonzero"/><path fill="#ffffff" d="M 120.308594 269.902344 C 120.394531 269.117188 120.507812 268.355469 120.652344 267.617188 C 120.792969 266.898438 120.976562 266.167969 121.199219 265.421875 C 121.425781 264.675781 121.699219 263.960938 122.027344 263.273438 C 122.351562 262.585938 122.730469 261.953125 123.175781 261.371094 C 123.613281 260.785156 124.121094 260.296875 124.695312 259.902344 C 125.265625 259.511719 125.90625 259.234375 126.617188 259.074219 C 127.328125 258.917969 128.125 258.921875 129 259.097656 C 129.898438 259.273438 130.65625 259.5625 131.273438 259.972656 C 131.890625 260.386719 132.386719 260.875 132.773438 261.441406 C 133.160156 262.011719 133.441406 262.644531 133.621094 263.34375 C 133.804688 264.039062 133.914062 264.765625 133.949219 265.527344 C 133.984375 266.28125 133.960938 267.054688 133.878906 267.839844 C 133.792969 268.625 133.679688 269.386719 133.535156 270.125 C 133.390625 270.875 133.207031 271.632812 132.988281 272.398438 C 132.773438 273.164062 132.507812 273.890625 132.195312 274.578125 C 131.878906 275.269531 131.511719 275.902344 131.085938 276.484375 C 130.664062 277.0625 130.167969 277.542969 129.597656 277.917969 C 129.03125 278.296875 128.382812 278.554688 127.652344 278.699219 C 126.921875 278.839844 126.101562 278.824219 125.191406 278.648438 C 124.289062 278.472656 123.535156 278.179688 122.914062 277.773438 C 122.296875 277.371094 121.796875 276.886719 121.410156 276.316406 C 121.027344 275.746094 120.746094 275.113281 120.5625 274.417969 C 120.382812 273.71875 120.273438 272.988281 120.238281 272.226562 C 120.203125 271.460938 120.226562 270.6875 120.308594 269.902344 Z M 119.542969 279.613281 C 121.039062 280.503906 122.738281 281.132812 124.632812 281.503906 C 126.53125 281.871094 128.34375 281.921875 130.0625 281.660156 C 131.785156 281.398438 133.335938 280.839844 134.714844 279.988281 C 136.097656 279.136719 137.273438 277.992188 138.234375 276.558594 C 139.199219 275.125 139.875 273.417969 140.261719 271.433594 C 140.640625 269.488281 140.648438 267.667969 140.289062 265.976562 C 139.925781 264.285156 139.261719 262.78125 138.296875 261.464844 C 137.335938 260.148438 136.105469 259.042969 134.609375 258.148438 C 133.113281 257.253906 131.429688 256.621094 129.550781 256.257812 C 127.675781 255.890625 125.875 255.84375 124.15625 256.113281 C 122.433594 256.378906 120.875 256.945312 119.492188 257.800781 C 118.101562 258.65625 116.921875 259.800781 115.953125 261.238281 C 114.980469 262.667969 114.308594 264.359375 113.929688 266.308594 C 113.542969 268.289062 113.527344 270.125 113.882812 271.816406 C 114.238281 273.507812 114.898438 275.003906 115.855469 276.316406 C 116.816406 277.621094 118.046875 278.722656 119.542969 279.613281 " fill-opacity="1" fill-rule="nonzero"/><path fill="#ffffff" d="M 88.945312 265.210938 L 87.667969 268.089844 L 103.695312 275.210938 L 113.699219 252.695312 L 107.546875 249.960938 L 103.183594 259.78125 L 95.558594 256.390625 L 94.289062 259.253906 L 101.910156 262.640625 L 98.820312 269.597656 L 88.945312 265.210938 " fill-opacity="1" fill-rule="nonzero"/><path fill="#ffffff" d="M 68.96875 251.886719 L 67.171875 254.472656 L 81.578125 264.472656 L 95.632812 244.234375 L 81.230469 234.230469 L 79.433594 236.816406 L 88.304688 242.980469 L 83.972656 249.21875 L 77.117188 244.460938 L 75.335938 247.03125 L 82.1875 251.792969 L 77.839844 258.046875 L 68.96875 251.886719 " fill-opacity="1" fill-rule="nonzero"/><path fill="#ffffff" d="M 51.328125 234.625 L 49.078125 236.828125 L 61.335938 249.363281 L 78.953125 232.136719 L 66.695312 219.597656 L 64.445312 221.800781 L 71.996094 229.523438 L 66.566406 234.835938 L 60.730469 228.871094 L 58.492188 231.058594 L 64.324219 237.027344 L 58.878906 242.347656 L 51.328125 234.625 " fill-opacity="1" fill-rule="nonzero"/><path fill="#ffffff" d="M 23.085938 172.4375 C 23.394531 171.828125 23.808594 171.269531 24.328125 170.765625 C 24.84375 170.257812 25.4375 169.8125 26.113281 169.425781 L 24.269531 166.875 C 23.261719 167.542969 22.433594 168.332031 21.777344 169.238281 C 21.125 170.148438 20.632812 171.125 20.304688 172.171875 C 19.976562 173.21875 19.796875 174.3125 19.773438 175.449219 C 19.75 176.582031 19.867188 177.714844 20.121094 178.839844 C 20.386719 180.007812 20.785156 181.097656 21.320312 182.105469 C 21.855469 183.117188 22.492188 184.023438 23.234375 184.828125 C 23.980469 185.632812 24.816406 186.324219 25.746094 186.910156 C 26.675781 187.492188 27.660156 187.949219 28.710938 188.269531 C 29.761719 188.59375 30.863281 188.777344 32.015625 188.824219 C 33.164062 188.871094 34.332031 188.761719 35.507812 188.492188 C 36.6875 188.226562 37.789062 187.824219 38.804688 187.285156 C 39.824219 186.746094 40.734375 186.105469 41.539062 185.359375 C 42.339844 184.617188 43.03125 183.78125 43.617188 182.855469 C 44.203125 181.925781 44.65625 180.9375 44.980469 179.894531 C 45.304688 178.84375 45.492188 177.75 45.535156 176.609375 C 45.582031 175.46875 45.472656 174.316406 45.203125 173.148438 C 44.960938 172.066406 44.585938 171.023438 44.082031 170.019531 C 43.578125 169.011719 42.960938 168.105469 42.226562 167.292969 C 41.492188 166.480469 40.644531 165.796875 39.683594 165.25 C 38.726562 164.703125 37.667969 164.34375 36.515625 164.164062 L 36.015625 167.285156 C 36.722656 167.367188 37.40625 167.539062 38.058594 167.796875 C 38.714844 168.054688 39.308594 168.386719 39.84375 168.808594 C 40.378906 169.226562 40.835938 169.722656 41.214844 170.296875 C 41.597656 170.867188 41.867188 171.511719 42.027344 172.214844 C 42.332031 173.550781 42.304688 174.75 41.941406 175.816406 C 41.582031 176.886719 41.007812 177.820312 40.214844 178.617188 C 39.429688 179.417969 38.484375 180.082031 37.386719 180.617188 C 36.292969 181.148438 35.160156 181.546875 33.992188 181.8125 C 33.257812 181.980469 32.492188 182.085938 31.695312 182.125 C 30.898438 182.167969 30.109375 182.128906 29.328125 182.019531 C 28.550781 181.90625 27.796875 181.71875 27.066406 181.453125 C 26.339844 181.191406 25.675781 180.839844 25.078125 180.402344 C 24.472656 179.964844 23.957031 179.429688 23.527344 178.804688 C 23.097656 178.179688 22.789062 177.453125 22.601562 176.625 C 22.429688 175.851562 22.386719 175.113281 22.476562 174.410156 C 22.570312 173.703125 22.769531 173.046875 23.085938 172.4375 " fill-opacity="1" fill-rule="nonzero"/><path fill="#ffffff" d="M 20.417969 145.367188 C 20.710938 144.6875 21.101562 144.109375 21.59375 143.628906 C 22.085938 143.152344 22.660156 142.765625 23.316406 142.464844 C 23.972656 142.164062 24.671875 141.929688 25.417969 141.761719 C 26.160156 141.59375 26.929688 141.480469 27.71875 141.425781 C 28.503906 141.371094 29.277344 141.351562 30.027344 141.363281 C 30.757812 141.375 31.511719 141.425781 32.285156 141.519531 C 33.058594 141.613281 33.8125 141.757812 34.546875 141.957031 C 35.277344 142.15625 35.96875 142.417969 36.621094 142.753906 C 37.269531 143.085938 37.839844 143.5 38.328125 143.996094 C 38.816406 144.488281 39.199219 145.074219 39.480469 145.742188 C 39.757812 146.414062 39.890625 147.199219 39.875 148.089844 C 39.863281 149.007812 39.707031 149.804688 39.410156 150.484375 C 39.113281 151.160156 38.71875 151.742188 38.226562 152.21875 C 37.730469 152.695312 37.15625 153.085938 36.503906 153.386719 C 35.847656 153.6875 35.148438 153.917969 34.414062 154.089844 C 33.671875 154.257812 32.910156 154.371094 32.121094 154.421875 C 31.332031 154.480469 30.5625 154.5 29.808594 154.484375 C 29.046875 154.472656 28.265625 154.429688 27.472656 154.347656 C 26.683594 154.265625 25.921875 154.132812 25.1875 153.945312 C 24.457031 153.757812 23.765625 153.503906 23.121094 153.1875 C 22.476562 152.871094 21.917969 152.46875 21.449219 151.972656 C 20.976562 151.476562 20.605469 150.882812 20.339844 150.191406 C 20.070312 149.496094 19.945312 148.6875 19.960938 147.761719 C 19.976562 146.84375 20.128906 146.046875 20.417969 145.367188 Z M 24.296875 160.238281 C 25.875 160.9375 27.675781 161.304688 29.695312 161.335938 C 31.679688 161.371094 33.472656 161.0625 35.074219 160.410156 C 36.679688 159.757812 38.042969 158.839844 39.167969 157.660156 C 40.296875 156.484375 41.171875 155.078125 41.789062 153.449219 C 42.410156 151.820312 42.734375 150.050781 42.769531 148.140625 C 42.800781 146.230469 42.535156 144.449219 41.96875 142.800781 C 41.402344 141.152344 40.574219 139.71875 39.488281 138.503906 C 38.402344 137.285156 37.070312 136.324219 35.488281 135.621094 C 33.910156 134.914062 32.125 134.546875 30.140625 134.511719 C 28.125 134.480469 26.3125 134.785156 24.710938 135.429688 C 23.105469 136.078125 21.746094 136.988281 20.625 138.160156 C 19.503906 139.335938 18.636719 140.738281 18.023438 142.367188 C 17.40625 143.996094 17.082031 145.777344 17.050781 147.710938 C 17.019531 149.644531 17.28125 151.433594 17.84375 153.082031 C 18.402344 154.730469 19.222656 156.160156 20.304688 157.371094 C 21.386719 158.582031 22.714844 159.539062 24.296875 160.238281 " fill-opacity="1" fill-rule="nonzero"/><path fill="#ffffff" d="M 23.609375 109.035156 L 19.511719 126.085938 L 43.472656 131.839844 L 45.046875 125.292969 L 34.597656 122.78125 L 36.542969 114.671875 L 33.5 113.9375 L 31.550781 122.050781 L 24.144531 120.273438 L 26.667969 109.769531 L 23.609375 109.035156 " fill-opacity="1" fill-rule="nonzero"/><path fill="#ffffff" d="M 33.164062 86.480469 L 26.023438 102.496094 L 48.53125 112.527344 L 51.273438 106.378906 L 41.457031 102.003906 L 44.855469 94.382812 L 41.996094 93.109375 L 38.597656 100.730469 L 31.640625 97.628906 L 36.039062 87.761719 L 33.164062 86.480469 " fill-opacity="1" fill-rule="nonzero"/><path fill="#ffffff" d="M 46.738281 66 L 36.757812 80.417969 L 57.015625 94.445312 L 66.996094 80.03125 L 64.410156 78.238281 L 58.261719 87.117188 L 52.011719 82.792969 L 56.761719 75.933594 L 54.191406 74.148438 L 49.4375 81.011719 L 43.179688 76.675781 L 49.328125 67.792969 L 46.738281 66 " fill-opacity="1" fill-rule="nonzero"/><path fill="#ffffff" d="M 64.316406 47.890625 L 51.808594 60.179688 L 69.078125 77.757812 L 81.585938 65.472656 L 79.378906 63.222656 L 71.675781 70.792969 L 66.347656 65.375 L 72.300781 59.527344 L 70.105469 57.292969 L 64.15625 63.140625 L 58.816406 57.707031 L 66.523438 50.136719 L 64.316406 47.890625 " fill-opacity="1" fill-rule="nonzero"/><path fill="#bf874d" d="M 263.148438 106.78125 C 258.6875 108.796875 253.984375 108.171875 252.242188 105.4375 C 252.132812 105.265625 252.03125 105.085938 251.945312 104.890625 C 251.71875 104.394531 251.59375 103.871094 251.566406 103.332031 C 251.390625 100.40625 253.933594 97.042969 257.945312 95.238281 C 262.253906 93.292969 266.785156 93.8125 268.652344 96.300781 C 268.851562 96.554688 269.011719 96.832031 269.148438 97.125 C 269.328125 97.515625 269.441406 97.929688 269.496094 98.339844 C 269.898438 101.34375 267.316406 104.898438 263.148438 106.78125 " fill-opacity="1" fill-rule="nonzero"/><path fill="#492515" d="M 252.242188 105.4375 C 253.644531 105.464844 258.445312 105.332031 260.355469 102.203125 C 262.203125 99.183594 269.332031 98.359375 269.40625 98.347656 L 269.496094 98.339844 C 269.441406 97.929688 269.328125 97.515625 269.148438 97.125 C 269.011719 96.832031 268.851562 96.554688 268.652344 96.304688 C 267.15625 96.511719 260.933594 97.539062 258.992188 100.710938 C 257.183594 103.667969 251.703125 103.339844 251.648438 103.339844 L 251.566406 103.332031 L 252.242188 105.4375 " fill-opacity="1" fill-rule="nonzero"/><path fill="#bf874d" d="M 199.832031 270.273438 C 199.59375 270.496094 199.332031 270.679688 199.046875 270.835938 C 198.675781 271.035156 198.273438 271.179688 197.867188 271.265625 C 194.910156 271.910156 191.160156 269.613281 188.960938 265.597656 C 186.609375 261.300781 186.871094 256.574219 189.457031 254.628906 C 189.621094 254.496094 189.800781 254.378906 189.984375 254.28125 C 190.460938 254.015625 190.972656 253.855469 191.503906 253.78125 C 194.40625 253.382812 197.949219 255.65625 200.070312 259.511719 C 202.339844 263.664062 202.179688 268.214844 199.832031 270.273438 " fill-opacity="1" fill-rule="nonzero"/><path fill="#492515" d="M 199.832031 270.273438 C 199.59375 270.496094 199.332031 270.679688 199.046875 270.835938 C 198.675781 271.035156 198.273438 271.179688 197.867188 271.265625 L 197.851562 271.1875 C 197.835938 271.113281 196.464844 264.070312 193.308594 262.453125 C 190.046875 260.800781 189.539062 256.039062 189.457031 254.628906 C 189.621094 254.496094 189.800781 254.378906 189.984375 254.28125 C 190.460938 254.015625 190.972656 253.855469 191.503906 253.78125 L 191.507812 253.863281 C 191.511719 253.917969 191.601562 259.414062 194.691406 260.984375 C 198.003906 262.671875 199.511719 268.796875 199.832031 270.273438 " fill-opacity="1" fill-rule="nonzero"/><path fill="#bf874d" d="M 100.929688 49.050781 C 100.714844 49.292969 100.472656 49.507812 100.207031 49.691406 C 99.855469 49.9375 99.480469 50.125 99.082031 50.253906 C 96.210938 51.214844 92.234375 49.339844 89.613281 45.582031 C 86.808594 41.574219 86.550781 36.839844 88.910156 34.628906 C 89.058594 34.484375 89.222656 34.347656 89.398438 34.226562 C 89.847656 33.910156 90.332031 33.699219 90.855469 33.566406 C 93.6875 32.851562 97.46875 34.722656 99.992188 38.332031 C 102.699219 42.203125 103.03125 46.75 100.929688 49.050781 " fill-opacity="1" fill-rule="nonzero"/><path fill="#492515" d="M 100.929688 49.050781 C 100.714844 49.292969 100.472656 49.507812 100.207031 49.691406 C 99.855469 49.9375 99.480469 50.125 99.082031 50.253906 L 99.058594 50.171875 C 99.035156 50.105469 96.902344 43.25 93.589844 41.992188 C 90.164062 40.699219 89.144531 36.023438 88.910156 34.628906 L 90.855469 33.566406 L 90.867188 33.640625 C 90.886719 33.785156 91.585938 39.152344 94.804688 40.371094 C 98.28125 41.699219 100.449219 47.617188 100.929688 49.050781 " fill-opacity="1" fill-rule="nonzero"/><path fill="#bf874d" d="M 47.410156 215.835938 C 43.179688 217.953125 38.636719 217.621094 36.664062 215.207031 L 35.738281 213.207031 C 35.207031 210.230469 37.640625 206.566406 41.730469 204.519531 C 46.109375 202.3125 50.832031 202.75 52.683594 205.414062 C 52.804688 205.582031 52.914062 205.761719 53.003906 205.949219 C 53.25 206.4375 53.398438 206.953125 53.449219 207.488281 C 53.738281 210.402344 51.34375 213.863281 47.410156 215.835938 " fill-opacity="1" fill-rule="nonzero"/><path fill="#492515" d="M 53.449219 207.488281 L 53.367188 207.488281 C 53.3125 207.476562 47.820312 207.382812 46.132812 210.40625 C 44.320312 213.664062 38.144531 214.945312 36.664062 215.207031 L 35.738281 213.207031 L 35.824219 213.195312 C 35.898438 213.1875 42.988281 212.070312 44.714844 208.976562 C 46.492188 205.777344 51.273438 205.4375 52.683594 205.414062 C 52.804688 205.582031 52.914062 205.761719 53.003906 205.949219 C 53.25 206.4375 53.398438 206.953125 53.449219 207.488281 " fill-opacity="1" fill-rule="nonzero"/><path fill="#492515" d="M 154.09375 211.738281 L 187.765625 211.566406 C 190.714844 211.550781 193.160156 209.347656 193.398438 206.5 L 200.566406 120.054688 L 140.761719 120.054688 L 148.40625 206.707031 C 148.660156 209.566406 151.136719 211.753906 154.09375 211.738281 " fill-opacity="1" fill-rule="nonzero"/><path fill="#ffffff" d="M 142.460938 121.609375 L 198.875 121.609375 L 191.847656 206.371094 C 191.679688 208.402344 189.882812 209.996094 187.761719 210.007812 L 154.085938 210.179688 C 154.078125 210.179688 154.074219 210.179688 154.066406 210.179688 C 151.941406 210.179688 150.136719 208.597656 149.957031 206.570312 Z M 154.066406 213.292969 C 154.078125 213.292969 154.089844 213.292969 154.101562 213.292969 L 187.773438 213.121094 C 191.5625 213.101562 194.644531 210.308594 194.949219 206.628906 L 202.117188 120.179688 C 202.152344 119.75 202.003906 119.320312 201.710938 119 C 201.417969 118.679688 201 118.5 200.566406 118.5 L 140.761719 118.5 C 140.324219 118.5 139.90625 118.679688 139.613281 119 C 139.320312 119.324219 139.171875 119.753906 139.210938 120.191406 L 146.855469 206.84375 C 147.179688 210.46875 150.34375 213.292969 154.066406 213.292969 " fill-opacity="1" fill-rule="nonzero"/><path fill="#492515" d="M 176.734375 88.210938 L 165.046875 88.210938 C 161.011719 88.210938 157.738281 91.484375 157.738281 95.519531 L 157.738281 97.902344 L 184.039062 97.902344 L 184.039062 95.519531 C 184.039062 91.484375 180.769531 88.210938 176.734375 88.210938 " fill-opacity="1" fill-rule="nonzero"/><path fill="#ffffff" d="M 182.484375 96.347656 L 159.296875 96.347656 L 159.296875 95.519531 C 159.296875 92.347656 161.875 89.765625 165.046875 89.765625 L 176.734375 89.765625 C 179.90625 89.765625 182.484375 92.347656 182.484375 95.519531 Z M 176.734375 86.652344 L 165.046875 86.652344 C 160.160156 86.652344 156.183594 90.632812 156.183594 95.519531 L 156.183594 99.460938 L 185.597656 99.460938 L 185.597656 95.519531 C 185.597656 90.632812 181.621094 86.652344 176.734375 86.652344 " fill-opacity="1" fill-rule="nonzero"/><path fill="#492515" d="M 195.691406 97.902344 L 146.085938 97.902344 C 142.050781 97.902344 138.777344 101.175781 138.777344 105.210938 L 138.777344 109.148438 L 203 109.148438 L 203 105.210938 C 203 101.175781 199.726562 97.902344 195.691406 97.902344 " fill-opacity="1" fill-rule="nonzero"/><path fill="#ffffff" d="M 140.335938 105.210938 C 140.335938 102.039062 142.914062 99.460938 146.085938 99.460938 L 195.691406 99.460938 C 198.863281 99.460938 201.445312 102.039062 201.445312 105.210938 L 201.445312 107.589844 L 140.335938 107.589844 Z M 203 110.703125 C 203.859375 110.703125 204.554688 110.007812 204.554688 109.148438 L 204.554688 105.210938 C 204.554688 100.324219 200.582031 96.347656 195.691406 96.347656 L 146.085938 96.347656 C 141.199219 96.347656 137.222656 100.324219 137.222656 105.210938 L 137.222656 109.148438 C 137.222656 110.007812 137.921875 110.703125 138.777344 110.703125 L 203 110.703125 " fill-opacity="1" fill-rule="nonzero"/><path fill="#492515" d="M 204.722656 120.054688 C 207.734375 120.054688 210.175781 117.613281 210.175781 114.601562 C 210.175781 111.589844 207.734375 109.148438 204.722656 109.148438 L 137.054688 109.148438 C 134.042969 109.148438 131.601562 111.589844 131.601562 114.601562 C 131.601562 117.613281 134.042969 120.054688 137.054688 120.054688 L 204.722656 120.054688 " fill-opacity="1" fill-rule="nonzero"/><path fill="#ffffff" d="M 133.160156 114.601562 C 133.160156 112.453125 134.90625 110.703125 137.054688 110.703125 L 204.722656 110.703125 C 206.871094 110.703125 208.621094 112.453125 208.621094 114.601562 C 208.621094 116.75 206.871094 118.5 204.722656 118.5 L 137.054688 118.5 C 134.90625 118.5 133.160156 116.75 133.160156 114.601562 Z M 204.722656 121.609375 C 208.589844 121.609375 211.734375 118.464844 211.734375 114.601562 C 211.734375 110.734375 208.589844 107.589844 204.722656 107.589844 L 137.054688 107.589844 C 133.191406 107.589844 130.046875 110.734375 130.046875 114.601562 C 130.046875 118.464844 133.191406 121.609375 137.054688 121.609375 L 204.722656 121.609375 " fill-opacity="1" fill-rule="nonzero"/><path fill="#ffffff" d="M 165.46875 150.777344 C 165.085938 151.132812 164.636719 151.40625 164.125 151.566406 C 163.746094 151.695312 163.355469 151.742188 162.957031 151.734375 C 160.585938 151.699219 158.042969 149.441406 156.921875 146.148438 C 155.816406 142.929688 156.40625 139.722656 158.199219 138.269531 C 158.542969 137.992188 158.933594 137.773438 159.363281 137.636719 C 159.839844 137.488281 160.328125 137.4375 160.828125 137.488281 C 163.117188 137.691406 165.488281 139.890625 166.566406 143.050781 C 167.632812 146.164062 167.121094 149.261719 165.46875 150.777344 " fill-opacity="1" fill-rule="nonzero"/><path fill="#492515" d="M 165.46875 150.777344 C 165.085938 151.132812 164.636719 151.40625 164.125 151.566406 C 163.746094 151.695312 163.355469 151.742188 162.957031 151.734375 L 162.953125 151.636719 C 162.878906 150.136719 162.328125 145.976562 160.558594 144.765625 C 158.207031 143.148438 158.121094 139.746094 158.199219 138.269531 C 158.542969 137.992188 158.933594 137.773438 159.363281 137.636719 C 159.839844 137.488281 160.328125 137.4375 160.828125 137.488281 L 160.808594 137.636719 C 160.652344 138.746094 160.621094 141.875 162.308594 143.035156 C 164.734375 144.707031 165.328125 149.117188 165.46875 150.777344 " fill-opacity="1" fill-rule="nonzero"/><path fill="#ffffff" d="M 184.964844 137.546875 C 184.957031 138.089844 184.796875 138.601562 184.515625 139.074219 C 183.542969 140.691406 181.109375 141.820312 178.269531 141.789062 C 175.257812 141.75 172.738281 140.425781 171.9375 138.632812 C 171.765625 138.234375 171.671875 137.824219 171.679688 137.394531 C 171.683594 136.933594 171.804688 136.492188 172.015625 136.074219 C 172.898438 134.347656 175.417969 133.117188 178.375 133.148438 C 181.484375 133.183594 184.078125 134.609375 184.777344 136.5 C 184.902344 136.832031 184.96875 137.1875 184.964844 137.546875 " fill-opacity="1" fill-rule="nonzero"/><path fill="#492515" d="M 184.964844 137.546875 C 184.957031 138.089844 184.796875 138.601562 184.515625 139.074219 L 184.457031 139.042969 C 183.578125 138.574219 180.972656 137.574219 179.488281 138.53125 C 177.3125 139.9375 173.433594 139.050781 171.9375 138.632812 C 171.765625 138.234375 171.671875 137.824219 171.679688 137.394531 C 171.683594 136.933594 171.804688 136.492188 172.015625 136.074219 L 172.027344 136.078125 C 173.808594 136.660156 177.148438 137.246094 178.539062 136.351562 C 180.648438 134.992188 183.523438 135.957031 184.777344 136.5 C 184.902344 136.832031 184.96875 137.1875 184.964844 137.546875 " fill-opacity="1" fill-rule="nonzero"/><path fill="#ffffff" d="M 183.277344 149.179688 C 183.484375 149.679688 183.539062 150.214844 183.46875 150.757812 C 183.21875 152.628906 181.429688 154.628906 178.8125 155.722656 C 176.027344 156.882812 173.1875 156.664062 171.746094 155.332031 C 171.429688 155.035156 171.179688 154.695312 171.015625 154.296875 C 170.839844 153.875 170.773438 153.417969 170.804688 152.953125 C 170.933594 151.019531 172.757812 148.886719 175.488281 147.746094 C 178.355469 146.550781 181.300781 146.832031 182.691406 148.289062 C 182.9375 148.546875 183.140625 148.847656 183.277344 149.179688 " fill-opacity="1" fill-rule="nonzero"/><path fill="#492515" d="M 183.277344 149.179688 C 183.484375 149.679688 183.539062 150.214844 183.46875 150.757812 L 183.40625 150.75 C 182.414062 150.671875 179.625 150.78125 178.644531 152.25 C 177.199219 154.40625 173.285156 155.125 171.746094 155.332031 C 171.429688 155.035156 171.179688 154.695312 171.015625 154.296875 C 170.839844 153.875 170.773438 153.417969 170.804688 152.953125 L 170.816406 152.953125 C 172.679688 152.777344 175.984375 151.992188 176.90625 150.625 C 178.304688 148.539062 181.324219 148.289062 182.691406 148.289062 C 182.9375 148.546875 183.140625 148.847656 183.277344 149.179688 " fill-opacity="1" fill-rule="nonzero"/><path fill="#492515" d="M 170.644531 184.273438 C 169.742188 183.007812 168.296875 181.75 167.210938 180.894531 C 166.339844 180.210938 165.074219 180.035156 163.808594 180.429688 L 152.421875 183.957031 C 152.421875 183.957031 151.167969 195.730469 162.867188 195.535156 C 162.867188 195.535156 172.230469 186.507812 170.644531 184.273438 " fill-opacity="1" fill-rule="nonzero"/><path fill="#ffffff" d="M 156.15625 191.625 C 154.277344 189.582031 153.964844 186.636719 153.941406 185.113281 L 164.265625 181.917969 C 165.042969 181.675781 165.785156 181.753906 166.25 182.121094 C 167.582031 183.167969 168.621094 184.164062 169.261719 185.019531 C 169.109375 186.296875 165.945312 190.324219 162.234375 193.976562 C 159.582031 193.914062 157.535156 193.125 156.15625 191.625 Z M 162.890625 197.089844 C 163.285156 197.085938 163.660156 196.929688 163.945312 196.65625 C 170.800781 190.046875 173.480469 185.578125 171.914062 183.371094 C 170.902344 181.945312 169.320312 180.570312 168.171875 179.671875 C 166.902344 178.671875 165.097656 178.398438 163.347656 178.941406 L 151.960938 182.472656 C 151.367188 182.652344 150.9375 183.175781 150.871094 183.792969 C 150.847656 184.035156 150.277344 189.808594 153.847656 193.714844 C 155.902344 195.957031 158.835938 197.09375 162.578125 197.09375 C 162.679688 197.09375 162.785156 197.09375 162.890625 197.089844 " fill-opacity="1" fill-rule="nonzero"/><path fill="#492515" d="M 152.324219 181.984375 L 141.675781 183.078125 C 141.675781 183.078125 132.207031 194.554688 149.945312 204.710938 C 149.945312 204.710938 160.671875 200.382812 164.230469 196.511719 C 164.664062 196.039062 164.4375 195.402344 163.84375 195.394531 C 160.636719 195.351562 152.328125 194.132812 153.023438 182.609375 C 153.050781 182.21875 152.742188 181.941406 152.324219 181.984375 " fill-opacity="1" fill-rule="nonzero"/><path fill="#ffffff" d="M 154.570312 193.242188 C 156.683594 195.523438 159.425781 196.425781 161.613281 196.765625 C 158.4375 199.195312 152.882812 201.789062 150.066406 202.976562 C 144.695312 199.765625 141.601562 196.167969 140.871094 192.269531 C 140.199219 188.65625 141.800781 185.683594 142.535156 184.554688 L 151.429688 183.640625 C 151.375 187.710938 152.429688 190.9375 154.570312 193.242188 Z M 153.933594 181.023438 C 153.472656 180.585938 152.832031 180.371094 152.164062 180.4375 L 141.515625 181.53125 C 141.113281 181.574219 140.738281 181.773438 140.476562 182.089844 C 140.320312 182.277344 136.703125 186.75 137.804688 192.789062 C 138.71875 197.796875 142.542969 202.265625 149.171875 206.0625 C 149.414062 206.199219 149.679688 206.269531 149.945312 206.269531 C 150.144531 206.269531 150.34375 206.230469 150.53125 206.152344 C 150.980469 205.972656 161.621094 201.644531 165.375 197.566406 C 166.011719 196.875 166.1875 195.941406 165.835938 195.125 C 165.503906 194.34375 164.746094 193.851562 163.867188 193.839844 C 162.164062 193.816406 158.988281 193.429688 156.851562 191.125 C 155.117188 189.261719 154.355469 186.425781 154.578125 182.703125 C 154.617188 182.070312 154.382812 181.457031 153.933594 181.023438 " fill-opacity="1" fill-rule="nonzero"/><path fill="#492515" d="M 98.0625 154.949219 C 97.804688 154.378906 97.058594 154.21875 96.503906 154.613281 L 91.988281 157.820312 C 87.117188 162.125 91.820312 173.191406 91.820312 173.191406 L 105.757812 167.980469 C 102.617188 164.589844 99.289062 157.644531 98.0625 154.949219 " fill-opacity="1" fill-rule="nonzero"/><path fill="#ffffff" d="M 92.960938 159.039062 L 96.933594 156.21875 C 98.167969 158.878906 100.609375 163.820312 103.175781 167.285156 L 92.722656 171.191406 C 91.542969 167.765625 90.183594 161.585938 92.960938 159.039062 Z M 91.820312 174.746094 C 92 174.746094 92.183594 174.714844 92.363281 174.652344 L 106.304688 169.4375 C 106.789062 169.257812 107.152344 168.84375 107.273438 168.339844 C 107.390625 167.835938 107.25 167.304688 106.898438 166.921875 C 103.847656 163.628906 100.449219 156.433594 99.480469 154.304688 C 99.171875 153.628906 98.578125 153.125 97.847656 152.929688 C 97.082031 152.722656 96.265625 152.875 95.601562 153.34375 L 91.085938 156.550781 C 91.039062 156.582031 90.996094 156.617188 90.957031 156.65625 C 85.308594 161.644531 90.175781 173.304688 90.386719 173.800781 C 90.636719 174.390625 91.214844 174.746094 91.820312 174.746094 " fill-opacity="1" fill-rule="nonzero"/><path fill="#492515" d="M 113.28125 174.21875 L 107.707031 167.394531 C 107.328125 166.933594 106.65625 166.785156 106.058594 167.035156 C 99.101562 169.921875 93.101562 172.183594 90.808594 173.035156 C 90.191406 173.261719 89.773438 173.84375 89.773438 174.464844 C 89.789062 182.617188 96.542969 189.070312 96.542969 189.070312 C 100.445312 179.105469 113.28125 174.21875 113.28125 174.21875 " fill-opacity="1" fill-rule="nonzero"/><path fill="#ffffff" d="M 91.320312 174.515625 C 91.324219 174.507812 91.332031 174.5 91.347656 174.492188 C 91.351562 174.492188 91.351562 174.492188 91.351562 174.492188 C 93.613281 173.652344 99.621094 171.390625 106.59375 168.5 L 110.773438 173.613281 C 107.25 175.289062 99.875 179.4375 96.136719 186.277344 C 94.277344 183.980469 91.335938 179.546875 91.320312 174.515625 Z M 96.542969 190.628906 C 96.652344 190.628906 96.769531 190.613281 96.878906 190.589844 C 97.386719 190.480469 97.804688 190.125 97.992188 189.640625 C 101.59375 180.449219 113.710938 175.71875 113.832031 175.675781 C 114.296875 175.496094 114.652344 175.101562 114.78125 174.621094 C 114.910156 174.136719 114.800781 173.621094 114.484375 173.234375 L 108.910156 166.410156 C 108.09375 165.410156 106.707031 165.082031 105.460938 165.597656 C 98.511719 168.480469 92.519531 170.738281 90.265625 171.574219 C 89.039062 172.03125 88.214844 173.195312 88.21875 174.46875 C 88.234375 183.183594 95.171875 189.914062 95.46875 190.195312 C 95.757812 190.476562 96.144531 190.628906 96.542969 190.628906 " fill-opacity="1" fill-rule="nonzero"/><path fill="#492515" d="M 141.882812 181.351562 C 137.832031 181.625 121.796875 182.078125 114.917969 172.738281 C 114.917969 172.738281 96.390625 179.625 95.554688 190.90625 C 95.554688 190.90625 112.417969 224.050781 151.417969 205.636719 C 151.839844 205.4375 151.941406 204.910156 151.574219 204.710938 C 147.90625 202.695312 134.707031 194.355469 142.304688 182.078125 C 142.523438 181.722656 142.296875 181.320312 141.882812 181.351562 " fill-opacity="1" fill-rule="nonzero"/><path fill="#ffffff" d="M 149.035156 205.015625 C 134.140625 211.574219 120.957031 211.21875 109.824219 203.949219 C 102.226562 198.984375 98.089844 192.238281 97.148438 190.582031 C 98.1875 182.121094 110.699219 176.199219 114.421875 174.617188 C 121.144531 182.496094 133.953125 183.164062 140.019531 182.996094 C 138.402344 186.304688 138.015625 189.609375 138.871094 192.851562 C 140.410156 198.707031 145.613281 202.847656 149.035156 205.015625 Z M 143.65625 180.757812 C 143.269531 180.113281 142.550781 179.738281 141.78125 179.796875 C 138.644531 180.011719 122.664062 180.628906 116.167969 171.8125 C 115.753906 171.253906 115.023438 171.035156 114.375 171.277344 C 113.578125 171.574219 94.902344 178.65625 94.003906 190.792969 C 93.980469 191.078125 94.039062 191.359375 94.167969 191.613281 C 94.347656 191.96875 98.675781 200.335938 108.003906 206.476562 C 113.003906 209.769531 120.027344 212.730469 129.097656 212.730469 C 135.679688 212.730469 143.335938 211.171875 152.082031 207.042969 C 152.84375 206.683594 153.332031 205.957031 153.355469 205.144531 C 153.378906 204.394531 152.984375 203.707031 152.324219 203.34375 C 150.273438 202.21875 143.464844 198.082031 141.878906 192.058594 C 141.101562 189.109375 141.691406 186.027344 143.625 182.898438 C 144.039062 182.230469 144.050781 181.410156 143.65625 180.757812 " fill-opacity="1" fill-rule="nonzero"/></svg>